<svg width="24" height="24" viewBox="0 0 24 24" fill="none" xmlns="http://www.w3.org/2000/svg">
<mask id="mask0_819_636" style="mask-type:alpha" maskUnits="userSpaceOnUse" x="0" y="0" width="24" height="24">
<rect width="24" height="24" fill="#D9D9D9"/>
</mask>
<g mask="url(#mask0_819_636)">
<path d="M5.3077 20.5C4.80898 20.5 4.38302 20.3233 4.02982 19.9701C3.67661 19.6169 3.5 19.191 3.5 18.6923V5.3077C3.5 4.80898 3.67661 4.38302 4.02982 4.02982C4.38302 3.67661 4.80898 3.5 5.3077 3.5H18.6923C19.191 3.5 19.6169 3.67661 19.9701 4.02982C20.3233 4.38302 20.5 4.80898 20.5 5.3077V8.02885H19V5.3077C19 5.21795 18.9711 5.14423 18.9134 5.08653C18.8557 5.02883 18.782 4.99998 18.6923 4.99998H5.3077C5.21795 4.99998 5.14423 5.02883 5.08653 5.08653C5.02883 5.14423 4.99997 5.21795 4.99997 5.3077V18.6923C4.99997 18.782 5.02883 18.8557 5.08653 18.9134C5.14423 18.9711 5.21795 19 5.3077 19H18.6923C18.782 19 18.8557 18.9711 18.9134 18.9134C18.9711 18.8557 19 18.782 19 18.6923V15.9711H20.5V18.6923C20.5 19.191 20.3233 19.6169 19.9701 19.9701C19.6169 20.3233 19.191 20.5 18.6923 20.5H5.3077ZM13.3077 16.5C12.809 16.5 12.383 16.3233 12.0298 15.9701C11.6766 15.6169 11.5 15.191 11.5 14.6923V9.3077C11.5 8.80898 11.6766 8.38303 12.0298 8.02983C12.383 7.67661 12.809 7.5 13.3077 7.5H19.6922C20.191 7.5 20.6169 7.67661 20.9701 8.02983C21.3233 8.38303 21.5 8.80898 21.5 9.3077V14.6923C21.5 15.191 21.3233 15.6169 20.9701 15.9701C20.6169 16.3233 20.191 16.5 19.6922 16.5H13.3077ZM19.6922 15C19.782 15 19.8557 14.9711 19.9134 14.9134C19.9711 14.8557 20 14.782 20 14.6923V9.3077C20 9.21795 19.9711 9.14423 19.9134 9.08653C19.8557 9.02883 19.782 8.99998 19.6922 8.99998H13.3077C13.218 8.99998 13.1442 9.02883 13.0865 9.08653C13.0288 9.14423 13 9.21795 13 9.3077V14.6923C13 14.782 13.0288 14.8557 13.0865 14.9134C13.1442 14.9711 13.218 15 13.3077 15H19.6922ZM16 13.5C16.4166 13.5 16.7708 13.3541 17.0625 13.0625C17.3541 12.7708 17.5 12.4166 17.5 12C17.5 11.5833 17.3541 11.2291 17.0625 10.9375C16.7708 10.6458 16.4166 10.5 16 10.5C15.5833 10.5 15.2291 10.6458 14.9375 10.9375C14.6458 11.2291 14.5 11.5833 14.5 12C14.5 12.4166 14.6458 12.7708 14.9375 13.0625C15.2291 13.3541 15.5833 13.5 16 13.5Z" fill="#5F696D"/>
</g>
</svg>
