<svg width="24" height="24" viewBox="0 0 24 24" fill="none" xmlns="http://www.w3.org/2000/svg">
<mask id="mask0_1063_459" style="mask-type:alpha" maskUnits="userSpaceOnUse" x="0" y="0" width="24" height="24">
<rect width="24" height="24" fill="#D9D9D9"/>
</mask>
<g mask="url(#mask0_1063_459)">
<path d="M19.5427 21.577L13.2619 15.2962C12.7619 15.7091 12.1869 16.0321 11.5369 16.2655C10.8869 16.4988 10.2145 16.6155 9.51965 16.6155C7.81048 16.6155 6.36396 16.0237 5.1801 14.8401C3.99623 13.6566 3.4043 12.2104 3.4043 10.5017C3.4043 8.79296 3.99608 7.34628 5.17965 6.16167C6.36321 4.97707 7.80936 4.38477 9.5181 4.38477C11.2268 4.38477 12.6735 4.9767 13.8581 6.16057C15.0427 7.34443 15.635 8.79095 15.635 10.5001C15.635 11.2142 15.5151 11.8963 15.2754 12.5463C15.0356 13.1963 14.7158 13.7617 14.3158 14.2424L20.5965 20.5232L19.5427 21.577ZM9.51965 15.1155C10.8081 15.1155 11.8995 14.6684 12.7937 13.7742C13.6879 12.8799 14.135 11.7886 14.135 10.5001C14.135 9.21165 13.6879 8.1203 12.7937 7.22607C11.8995 6.33183 10.8081 5.88472 9.51965 5.88472C8.23118 5.88472 7.13983 6.33183 6.2456 7.22607C5.35138 8.1203 4.90427 9.21165 4.90427 10.5001C4.90427 11.7886 5.35138 12.8799 6.2456 13.7742C7.13983 14.6684 8.23118 15.1155 9.51965 15.1155Z" fill="#092433"/>
</g>
</svg>
